<svg width="59" height="59" viewBox="0 0 59 59" fill="none" xmlns="http://www.w3.org/2000/svg">
<path fill-rule="evenodd" clip-rule="evenodd" d="M9.97836 0.49505L39.6264 0.4821V10.4237L9.97836 10.4367C8.63926 10.438 7.33483 10.0704 6.25605 9.38767L1.45015 6.33569C1.29247 6.23534 1.16433 6.10456 1.07604 5.95387C0.987745 5.80318 0.941751 5.63677 0.941751 5.46801C0.941751 5.29925 0.987745 5.13284 1.07604 4.98215C1.16433 4.83146 1.29247 4.70068 1.45015 4.60033L6.26106 1.54403C7.33647 0.861549 8.63711 0.492513 9.97334 0.490733L9.97836 0.49505ZM51.8318 10.4151L45.8972 10.4194V0.477783H51.8519C55.0324 0.520951 57.4655 2.95131 57.4655 5.44211C57.4655 7.93722 55.0324 10.3719 51.8519 10.4151H51.8318ZM22.0784 20.3869C23.759 20.9653 25.1887 21.5999 26.4278 22.2302V58.4395C24.5152 57.2046 22.4241 56.1888 20.2072 55.4178C16.52 54.1486 11.2024 53.0996 3.09057 53.0996C2.42533 53.0996 1.78734 52.8722 1.31694 52.4675C0.846542 52.0627 0.582275 51.5137 0.582275 50.9412V19.912C0.582275 19.3396 0.846542 18.7906 1.31694 18.3858C1.78734 17.981 2.42533 17.7536 3.09057 17.7536C11.7191 17.7536 17.6889 18.8717 22.0784 20.3869ZM38.9141 55.4178C36.2051 56.3545 34.3038 57.4294 32.6935 58.4352V22.2302C33.9326 21.5999 35.3674 20.9653 37.0479 20.3869C41.4374 18.8717 47.4072 17.7536 56.0357 17.7536C56.701 17.7536 57.339 17.981 57.8094 18.3858C58.2798 18.7906 58.544 19.3396 58.544 19.912V50.9412C58.544 51.5137 58.2798 52.0627 57.8094 52.4675C57.339 52.8722 56.701 53.0996 56.0357 53.0996C47.9239 53.0996 42.6063 54.1443 38.9141 55.4178Z" fill="#305397"/>
</svg>
