<svg width="76" height="76" viewBox="0 0 76 76" fill="none" xmlns="http://www.w3.org/2000/svg">
<path fill-rule="evenodd" clip-rule="evenodd" d="M15.9786 3.49493L45.6267 3.48198V13.4236L15.9786 13.4365C14.6395 13.4378 13.3351 13.0702 12.2563 12.3875L7.45039 9.33557C7.29271 9.23521 7.16458 9.10444 7.07628 8.95375C6.98799 8.80306 6.942 8.63665 6.942 8.46789C6.942 8.29913 6.98799 8.13272 7.07628 7.98203C7.16458 7.83133 7.29271 7.70056 7.45039 7.60021L12.2613 4.54391C13.3367 3.86143 14.6374 3.49239 15.9736 3.49061L15.9786 3.49493ZM57.8321 13.4149L51.8974 13.4193V3.47766H57.8521C61.0327 3.52083 63.4657 5.95119 63.4657 8.44199C63.4657 10.9371 61.0327 13.3718 57.8521 13.4149H57.8321ZM28.0786 23.3868C29.7592 23.9652 31.1889 24.5998 32.428 25.23V61.4394C30.5154 60.2045 28.4244 59.1887 26.2074 58.4176C22.5202 57.1485 17.2027 56.0995 9.09082 56.0995C8.42558 56.0995 7.78758 55.8721 7.31718 55.4673C6.84679 55.0626 6.58252 54.5136 6.58252 53.9411V22.9119C6.58252 22.3395 6.84679 21.7905 7.31718 21.3857C7.78758 20.9809 8.42558 20.7535 9.09082 20.7535C17.7194 20.7535 23.6891 21.8716 28.0786 23.3868ZM44.9143 58.4176C42.2054 59.3544 40.3041 60.4293 38.6938 61.4351V25.23C39.9329 24.5998 41.3676 23.9652 43.0482 23.3868C47.4377 21.8716 53.4074 20.7535 62.036 20.7535C62.7012 20.7535 63.3392 20.9809 63.8096 21.3857C64.28 21.7905 64.5443 22.3395 64.5443 22.9119V53.9411C64.5443 54.5136 64.28 55.0626 63.8096 55.4673C63.3392 55.8721 62.7012 56.0995 62.036 56.0995C53.9242 56.0995 48.6066 57.1442 44.9143 58.4176Z" fill="white"/>
</svg>
