<svg width="54" height="50" viewBox="0 0 54 50" fill="none" xmlns="http://www.w3.org/2000/svg">
<path d="M26.2019 40.6006H30.0481V43.7256H26.2019V40.6006ZM28.125 17.1631C29.4471 17.1631 30.6891 17.3665 31.851 17.7734C33.0128 18.1803 34.0244 18.7419 34.8858 19.458C35.7472 20.1742 36.4383 21.0042 36.9591 21.9482C37.48 22.8923 37.7404 23.9014 37.7404 24.9756C37.7404 25.9521 37.5501 26.8066 37.1695 27.5391C36.7889 28.2715 36.3181 28.9225 35.7572 29.4922C35.1963 30.0618 34.5753 30.5908 33.8942 31.0791C33.2131 31.5674 32.6022 32.0557 32.0613 32.5439C31.5204 33.0322 31.0397 33.5449 30.619 34.082C30.1983 34.6191 30.008 35.2295 30.0481 35.9131V37.4756H26.2019V35.9131C26.2019 34.9365 26.3922 34.0902 26.7728 33.374C27.1534 32.6579 27.6242 32.0068 28.1851 31.4209C28.746 30.835 29.367 30.2979 30.0481 29.8096C30.7292 29.3213 31.3401 28.8411 31.881 28.3691C32.4219 27.8971 32.9026 27.3844 33.3233 26.8311C33.744 26.2777 33.9343 25.6592 33.8942 24.9756C33.8942 24.3408 33.744 23.7386 33.4435 23.1689C33.143 22.5993 32.7324 22.1029 32.2115 21.6797C31.6907 21.2565 31.0697 20.9147 30.3486 20.6543C29.6274 20.3939 28.8862 20.2718 28.125 20.2881C27.3438 20.2881 26.6026 20.4102 25.9014 20.6543C25.2003 20.8984 24.5893 21.2321 24.0685 21.6553C23.5477 22.0785 23.127 22.583 22.8065 23.1689C22.486 23.7549 22.3357 24.3571 22.3558 24.9756H18.5096C18.5096 23.9014 18.76 22.8923 19.2608 21.9482C19.7616 21.0042 20.4427 20.1823 21.3041 19.4824C22.1655 18.7826 23.1871 18.221 24.369 17.7979C25.5509 17.3747 26.8029 17.1631 28.125 17.1631ZM53.125 13.4033V50H3.125V0H36.7788L53.125 13.4033ZM37.8906 12.5H46.6046L37.8906 5.37109V12.5ZM49.2788 46.875V15.625H34.0445V3.125H6.97115V46.875H49.2788Z" fill="white"/>
</svg>
